<svg xmlns="http://www.w3.org/2000/svg" width="324" height="83.951" viewBox="0 0 324 83.951">
  <defs>
    <style>
      .cls-1 {
        fill: #007b7b;
      }
    </style>
  </defs>
  <path id="Path_2007" data-name="Path 2007" class="cls-1" d="M661.128-1510.435c-.814-.7-1.621-1.436-2.418-2.236-.156-.152-.29-.314-.441-.468-.19-.186-.382-.353-.573-.541a46.671,46.671,0,0,1-4.916-5.757,46.036,46.036,0,0,1-3.5-5.621,35.613,35.613,0,0,1-2.041-4.674,12.209,12.209,0,0,1-.7-3.222,5.54,5.54,0,0,1,.9-2.789,13.247,13.247,0,0,1,1.315-1.832c-.1-1.252-.164-2.529-.164-3.864,0-.218.021-.426.025-.642-.006-.265-.025-.521-.025-.787a46.955,46.955,0,0,1,.6-7.55,46.48,46.48,0,0,1,1.5-6.451,36.185,36.185,0,0,1,1.86-4.75,12.184,12.184,0,0,1,1.786-2.771,5.478,5.478,0,0,1,2.606-1.333,12.617,12.617,0,0,1,2.225-.366c.814-.957,1.674-1.909,2.616-2.85.16-.159.328-.3.486-.456.181-.184.343-.374.524-.554a47.057,47.057,0,0,1,5.761-4.917,46.358,46.358,0,0,1,5.621-3.5,35.621,35.621,0,0,1,4.673-2.041,12.243,12.243,0,0,1,3.224-.7,5.514,5.514,0,0,1,2.785.9,11.625,11.625,0,0,1,1.366.955,37.4,37.4,0,0,0-7.771,1.464,27.725,27.725,0,0,0-9.2,4.734,20.943,20.943,0,0,0-5.808,7.388,22.24,22.24,0,0,0-2.012,9.469,23.065,23.065,0,0,0,1.5,8.7,20.158,20.158,0,0,0,3.959,6.216,24.684,24.684,0,0,0,5.54,4.34,57.041,57.041,0,0,0,6.313,3.109c2.348.988,4.4,1.793,6.256,2.463a45.054,45.054,0,0,1,5.406,2.342,12.607,12.607,0,0,1,3.754,2.882,5.526,5.526,0,0,1,1.366,3.8,7.634,7.634,0,0,1-.742,3.457,6.413,6.413,0,0,1-2.186,2.453,11.857,11.857,0,0,1-3.535,1.52,18.155,18.155,0,0,1-4.673.552,25.642,25.642,0,0,1-7.521-1.021,43.613,43.613,0,0,1-5.838-2.19c-1.735-.811-3.109-1.519-4.195-2.158a6.193,6.193,0,0,0-2.783-1.047,2.733,2.733,0,0,0-1.387.331,2.435,2.435,0,0,0-.965,1.319,10.021,10.021,0,0,0-.507,2.305,36.128,36.128,0,0,0-.149,3.731C661.037-1512.084,661.069-1511.219,661.128-1510.435Zm69.091-35.15a12.168,12.168,0,0,0-.7-3.22,35.444,35.444,0,0,0-2.041-4.675,46.377,46.377,0,0,0-3.505-5.622,46.7,46.7,0,0,0-4.916-5.758c-.19-.19-.386-.359-.579-.545-.149-.154-.279-.313-.432-.464-.94-.942-1.892-1.8-2.851-2.618a12.619,12.619,0,0,0-.364-2.225,5.518,5.518,0,0,0-1.334-2.609,12.214,12.214,0,0,0-2.772-1.783,36.623,36.623,0,0,0-4.749-1.862c-1.181-.37-2.506-.7-3.891-.994.221.062.464.107.682.168a26.589,26.589,0,0,1,4.325,1.574,14.625,14.625,0,0,1,2.572,1.452,4.265,4.265,0,0,1,1.182,1.332,5.662,5.662,0,0,1,.51,1.535c.113.555.2,1.255.286,2.1.083.895.125,1.931.125,3.081,0,1.351-.041,2.536-.125,3.524a10.374,10.374,0,0,1-.41,2.224,2.343,2.343,0,0,1-.929,1.282,2.564,2.564,0,0,1-1.327.337,5.752,5.752,0,0,1-2.408-.885c-1.027-.558-2.278-1.148-3.718-1.751a42.455,42.455,0,0,0-5.171-1.756,24.359,24.359,0,0,0-6.656-.822,16.923,16.923,0,0,0-4.556.535,8.3,8.3,0,0,0-3.091,1.509,6.163,6.163,0,0,0-1.786,2.264,6.525,6.525,0,0,0-.6,2.8,5.556,5.556,0,0,0,1.387,3.842,14.056,14.056,0,0,0,3.846,2.844,45.862,45.862,0,0,0,5.529,2.337c2.086.745,4.225,1.562,6.343,2.429a56.01,56.01,0,0,1,6.373,3.063,24.029,24.029,0,0,1,5.668,4.342,20.182,20.182,0,0,1,4.04,6.172,21.733,21.733,0,0,1,1.536,8.511,24.174,24.174,0,0,1-2.3,10.776,21.488,21.488,0,0,1-6.486,7.829,29.326,29.326,0,0,1-9.863,4.687,43.39,43.39,0,0,1-6.669,1.242,12.015,12.015,0,0,0,1.508,1.06,5.523,5.523,0,0,0,2.783.9,12.045,12.045,0,0,0,3.226-.7,36.025,36.025,0,0,0,4.673-2.041,46.309,46.309,0,0,0,5.619-3.5,46.98,46.98,0,0,0,5.759-4.914c.186-.186.351-.377.531-.566.158-.152.324-.287.482-.444.94-.944,1.8-1.9,2.615-2.855a12.76,12.76,0,0,0,2.226-.363,5.517,5.517,0,0,0,2.61-1.333,12.275,12.275,0,0,0,1.783-2.773,36.056,36.056,0,0,0,1.862-4.747,46.528,46.528,0,0,0,1.5-6.454,46.648,46.648,0,0,0,.6-7.547c0-.268-.019-.524-.024-.788.005-.215.024-.424.024-.641,0-1.331-.066-2.613-.168-3.866a12.413,12.413,0,0,0,1.315-1.832A5.513,5.513,0,0,0,730.219-1545.585Zm38.663-6.722a7.231,7.231,0,0,0-1.44-2.2,8.7,8.7,0,0,0-2.032-1.556,20.467,20.467,0,0,0-2.3-1.106c-.779-.318-1.542-.61-2.3-.88a17.6,17.6,0,0,1-2.03-.859,5.42,5.42,0,0,1-1.443-1.068,2.183,2.183,0,0,1-.544-1.5,2.494,2.494,0,0,1,.234-1.079,2.408,2.408,0,0,1,.69-.878,3.175,3.175,0,0,1,1.182-.576,6.274,6.274,0,0,1,1.694-.2,9.153,9.153,0,0,1,2.466.3,15.772,15.772,0,0,1,1.9.647,14.726,14.726,0,0,1,1.366.644,1.986,1.986,0,0,0,.8.3.79.79,0,0,0,.407-.1.711.711,0,0,0,.273-.387,3.8,3.8,0,0,0,.141-.776c.026-.326.047-.748.047-1.271,0-.443-.021-.81-.047-1.106s-.058-.549-.1-.748a1.983,1.983,0,0,0-.173-.52,1.422,1.422,0,0,0-.388-.435,5.152,5.152,0,0,0-.906-.514,9.975,9.975,0,0,0-1.553-.563,18.122,18.122,0,0,0-2.058-.43,15.6,15.6,0,0,0-2.35-.172,14.711,14.711,0,0,0-4.364.6,9.938,9.938,0,0,0-3.3,1.7,7.448,7.448,0,0,0-2.075,2.636,7.964,7.964,0,0,0-.718,3.384,8.291,8.291,0,0,0,.533,3.112,7.171,7.171,0,0,0,1.413,2.216,8.652,8.652,0,0,0,1.983,1.553,20.345,20.345,0,0,0,2.282,1.122c.775.326,1.532.628,2.271.894a17.273,17.273,0,0,1,1.984.859,4.66,4.66,0,0,1,1.408,1.083,2.166,2.166,0,0,1,.535,1.483,2.979,2.979,0,0,1-.283,1.325,2.5,2.5,0,0,1-.848.949,4.393,4.393,0,0,1-1.332.572,6.75,6.75,0,0,1-1.737.206,9.454,9.454,0,0,1-2.781-.375,16.106,16.106,0,0,1-2.144-.807,16.926,16.926,0,0,1-1.536-.791,2.191,2.191,0,0,0-.94-.361.849.849,0,0,0-.43.1.761.761,0,0,0-.292.406,3.743,3.743,0,0,0-.171.8,12.294,12.294,0,0,0-.053,1.344,7.55,7.55,0,0,0,.175,1.914,1.975,1.975,0,0,0,.482.951,4.373,4.373,0,0,0,1.012.649,12.734,12.734,0,0,0,1.724.679,16.955,16.955,0,0,0,2.352.545,17.006,17.006,0,0,0,2.746.214,16.666,16.666,0,0,0,4.434-.562,10.474,10.474,0,0,0,3.539-1.681,7.609,7.609,0,0,0,2.316-2.8,8.571,8.571,0,0,0,.823-3.857A7.726,7.726,0,0,0,768.882-1552.307Zm28.53-13.892a4.038,4.038,0,0,0,.23-1.253,1.021,1.021,0,0,0-.388-.848,2.518,2.518,0,0,0-1.206-.432,16.141,16.141,0,0,0-2.063-.112,14.952,14.952,0,0,0-2.21.112,1.886,1.886,0,0,0-.912.361,1.962,1.962,0,0,0-.443.993l-5.531,17.534H784.8l-6.049-17.19a5.13,5.13,0,0,0-.4-1.019,1.235,1.235,0,0,0-.6-.535,3.4,3.4,0,0,0-1.12-.213c-.486-.033-1.138-.043-1.963-.043a17.24,17.24,0,0,0-2.171.112,2.281,2.281,0,0,0-1.168.419,1.057,1.057,0,0,0-.347.834,4.836,4.836,0,0,0,.377,1.542l8.838,23.606a2.525,2.525,0,0,0,.449.764,1.931,1.931,0,0,0,.673.533l-3.424,8.61a1.733,1.733,0,0,0-.17.83.743.743,0,0,0,.371.577,2.637,2.637,0,0,0,1.036.332,13.714,13.714,0,0,0,1.841.1,13.671,13.671,0,0,0,3.37-.316,1.867,1.867,0,0,0,1.409-1.035l3.111-9.1Zm21.652,13.892a7.159,7.159,0,0,0-1.438-2.2,8.757,8.757,0,0,0-2.03-1.556,21.153,21.153,0,0,0-2.3-1.106q-1.168-.478-2.3-.88a17.442,17.442,0,0,1-2.028-.859,5.081,5.081,0,0,1-1.44-1.068,2.151,2.151,0,0,1-.55-1.5,2.522,2.522,0,0,1,.234-1.079,2.449,2.449,0,0,1,.69-.878,3.187,3.187,0,0,1,1.183-.576,6.248,6.248,0,0,1,1.694-.2,9.086,9.086,0,0,1,2.463.3,15.794,15.794,0,0,1,1.9.647,14.6,14.6,0,0,1,1.368.644,1.961,1.961,0,0,0,.806.3.769.769,0,0,0,.4-.1.686.686,0,0,0,.275-.387,3.286,3.286,0,0,0,.147-.776c.023-.326.042-.748.042-1.271,0-.443-.019-.81-.042-1.106s-.068-.549-.105-.748a1.871,1.871,0,0,0-.168-.52,1.464,1.464,0,0,0-.392-.435,4.921,4.921,0,0,0-.908-.514,9.8,9.8,0,0,0-1.555-.563,17.8,17.8,0,0,0-2.058-.43,15.545,15.545,0,0,0-2.346-.172,14.729,14.729,0,0,0-4.364.6,9.947,9.947,0,0,0-3.294,1.7,7.433,7.433,0,0,0-2.071,2.636,7.826,7.826,0,0,0-.722,3.384,8.105,8.105,0,0,0,.537,3.112,7.1,7.1,0,0,0,1.4,2.216,8.737,8.737,0,0,0,1.992,1.553,20.026,20.026,0,0,0,2.27,1.122c.779.326,1.54.628,2.279.894a17.145,17.145,0,0,1,1.986.859,4.832,4.832,0,0,1,1.408,1.083,2.177,2.177,0,0,1,.537,1.483,2.955,2.955,0,0,1-.29,1.325,2.43,2.43,0,0,1-.85.949,4.349,4.349,0,0,1-1.325.572,6.8,6.8,0,0,1-1.745.206,9.489,9.489,0,0,1-2.777-.375,16.144,16.144,0,0,1-2.141-.807q-.922-.428-1.544-.791a2.149,2.149,0,0,0-.935-.361.865.865,0,0,0-.435.1.762.762,0,0,0-.283.406,3.086,3.086,0,0,0-.17.8,11.44,11.44,0,0,0-.064,1.344,8.239,8.239,0,0,0,.173,1.914,2.008,2.008,0,0,0,.494.951,4.274,4.274,0,0,0,1.006.649,13.313,13.313,0,0,0,1.726.679,16.645,16.645,0,0,0,2.352.545,17.1,17.1,0,0,0,2.747.214,16.642,16.642,0,0,0,4.432-.562,10.533,10.533,0,0,0,3.541-1.681,7.745,7.745,0,0,0,2.318-2.8,8.672,8.672,0,0,0,.816-3.857A7.729,7.729,0,0,0,819.063-1552.307Zm46.843-6.143a18.566,18.566,0,0,0-.46-4.207,9.382,9.382,0,0,0-1.543-3.467,7.591,7.591,0,0,0-2.836-2.351,9.78,9.78,0,0,0-4.321-.86,8.977,8.977,0,0,0-2.2.273,10.01,10.01,0,0,0-2.16.834,13.964,13.964,0,0,0-2.187,1.455,21.481,21.481,0,0,0-2.258,2.128,8.547,8.547,0,0,0-1.212-1.926,7.008,7.008,0,0,0-1.711-1.484,8.139,8.139,0,0,0-2.258-.949,11.247,11.247,0,0,0-2.853-.331,9.116,9.116,0,0,0-4.419,1.152,16.892,16.892,0,0,0-4.246,3.453v-2.961a.9.9,0,0,0-.145-.508,1.075,1.075,0,0,0-.477-.359,3.605,3.605,0,0,0-.931-.219,13.9,13.9,0,0,0-1.528-.067,12.993,12.993,0,0,0-1.483.067,4.292,4.292,0,0,0-.965.219,1.054,1.054,0,0,0-.517.359.867.867,0,0,0-.143.508v25.678a.805.805,0,0,0,.168.5,1.323,1.323,0,0,0,.594.361,5.311,5.311,0,0,0,1.11.215,17.228,17.228,0,0,0,1.75.073,17.421,17.421,0,0,0,1.757-.073,5.343,5.343,0,0,0,1.11-.215,1.277,1.277,0,0,0,.59-.361.788.788,0,0,0,.173-.5v-17.074a16.8,16.8,0,0,1,2.853-2.938,4.353,4.353,0,0,1,2.642-1,3.823,3.823,0,0,1,1.817.416,3.31,3.31,0,0,1,1.263,1.185,5.511,5.511,0,0,1,.739,1.827,10.724,10.724,0,0,1,.249,2.359v15.23a.766.766,0,0,0,.171.5,1.3,1.3,0,0,0,.588.361,5.465,5.465,0,0,0,1.112.215,17.229,17.229,0,0,0,1.75.073,17.069,17.069,0,0,0,1.73-.073,5.576,5.576,0,0,0,1.112-.215,1.276,1.276,0,0,0,.582-.361.764.764,0,0,0,.181-.5v-17.074a17.671,17.671,0,0,1,2.876-2.938,4.335,4.335,0,0,1,2.618-1,3.816,3.816,0,0,1,1.832.416,3.591,3.591,0,0,1,1.266,1.185,5.512,5.512,0,0,1,.749,1.827,10.508,10.508,0,0,1,.247,2.359v15.23a.826.826,0,0,0,.153.5,1.225,1.225,0,0,0,.582.361,5.409,5.409,0,0,0,1.1.215,17.841,17.841,0,0,0,1.788.073,17.486,17.486,0,0,0,1.756-.073,5.1,5.1,0,0,0,1.093-.215,1.292,1.292,0,0,0,.575-.361.779.779,0,0,0,.173-.5Zm28.99-.751a14.853,14.853,0,0,0-.629-4.578,7.054,7.054,0,0,0-2.02-3.152,8.706,8.706,0,0,0-3.528-1.814,19.659,19.659,0,0,0-5.165-.59,19.576,19.576,0,0,0-3.3.273,21.224,21.224,0,0,0-2.949.7,16.077,16.077,0,0,0-2.365.94,5.318,5.318,0,0,0-1.409.917,2.155,2.155,0,0,0-.544.936,5.379,5.379,0,0,0-.151,1.415,7.339,7.339,0,0,0,.1,1.2,3.72,3.72,0,0,0,.239.92,1.525,1.525,0,0,0,.405.58.862.862,0,0,0,.558.2,2.658,2.658,0,0,0,1.2-.4c.492-.271,1.1-.562,1.828-.895a18.587,18.587,0,0,1,2.517-.891,11.844,11.844,0,0,1,3.24-.4,7.988,7.988,0,0,1,2.318.291,3.342,3.342,0,0,1,1.5.889,3.61,3.61,0,0,1,.807,1.512,8.324,8.324,0,0,1,.247,2.114v1.561h-2.51a30.728,30.728,0,0,0-6.015.517,13.008,13.008,0,0,0-4.332,1.6,7.052,7.052,0,0,0-2.617,2.737,8.138,8.138,0,0,0-.882,3.9,8.783,8.783,0,0,0,.693,3.628,7.113,7.113,0,0,0,1.939,2.6,8.4,8.4,0,0,0,2.966,1.584,12.581,12.581,0,0,0,3.761.533,10.47,10.47,0,0,0,4.5-.951,11.653,11.653,0,0,0,3.614-2.646v2.043a.828.828,0,0,0,.249.633,1.621,1.621,0,0,0,.833.328,11.853,11.853,0,0,0,1.885.1,11.7,11.7,0,0,0,1.832-.1,1.966,1.966,0,0,0,.9-.328.771.771,0,0,0,.289-.633Zm-7.106,10.654a11.585,11.585,0,0,1-2.614,2.274,5.3,5.3,0,0,1-2.8.776,4.08,4.08,0,0,1-2.836-.92,3.224,3.224,0,0,1-1.023-2.533,3.732,3.732,0,0,1,.358-1.685,3.248,3.248,0,0,1,1.135-1.251,5.81,5.81,0,0,1,2.02-.781,15.169,15.169,0,0,1,2.992-.257h2.768Zm28.915,2.678a7.092,7.092,0,0,0-.153-.824.7.7,0,0,0-.253-.4.614.614,0,0,0-.324-.1,1.256,1.256,0,0,0-.449.1c-.164.069-.365.145-.6.23a7.163,7.163,0,0,1-.824.233,4.93,4.93,0,0,1-1.04.1,2.579,2.579,0,0,1-2.359-1.052,6.019,6.019,0,0,1-.658-3.151V-1562.8h5.608c.366,0,.643-.228.837-.68a6.264,6.264,0,0,0,.29-2.257,11.123,11.123,0,0,0-.073-1.412,3.553,3.553,0,0,0-.217-.905,1.066,1.066,0,0,0-.356-.476.874.874,0,0,0-.5-.143h-5.583v-5.73a.848.848,0,0,0-.177-.518,1.28,1.28,0,0,0-.573-.387,4.44,4.44,0,0,0-1.11-.232c-.469-.046-1.063-.068-1.766-.068s-1.274.022-1.748.068a4.717,4.717,0,0,0-1.123.232,1.167,1.167,0,0,0-.569.387.855.855,0,0,0-.16.518v5.73h-3.051a.886.886,0,0,0-.509.143,1.094,1.094,0,0,0-.358.476,3.274,3.274,0,0,0-.211.905,11.593,11.593,0,0,0-.071,1.412,6.262,6.262,0,0,0,.283,2.257c.2.452.471.68.831.68h3.087v13.161a14.975,14.975,0,0,0,.488,4.08,7,7,0,0,0,1.526,2.866,6.2,6.2,0,0,0,2.619,1.686,11.424,11.424,0,0,0,3.744.545,13.988,13.988,0,0,0,1.6-.085,12.663,12.663,0,0,0,1.47-.241,6.925,6.925,0,0,0,1.179-.38,2.193,2.193,0,0,0,.761-.489,2.092,2.092,0,0,0,.419-.947,9.351,9.351,0,0,0,.158-1.946A9.4,9.4,0,0,0,916.7-1545.87Zm23.913-1.786a6.494,6.494,0,0,0-.158-.99.993.993,0,0,0-.275-.536.623.623,0,0,0-.43-.146,1.609,1.609,0,0,0-.922.448c-.367.3-.816.626-1.353.994a10.649,10.649,0,0,1-1.885.989,6.718,6.718,0,0,1-2.578.449,5.782,5.782,0,0,1-2.574-.535,4.642,4.642,0,0,1-1.845-1.6,7.7,7.7,0,0,1-1.11-2.652,16.032,16.032,0,0,1-.373-3.656q0-4.2,1.5-6.373a4.915,4.915,0,0,1,4.315-2.176,6.822,6.822,0,0,1,2.472.4,9.885,9.885,0,0,1,1.786.893c.5.327.935.624,1.294.892a1.805,1.805,0,0,0,1.038.406c.307,0,.554-.228.748-.676a6.622,6.622,0,0,0,.287-2.35c0-.48-.013-.889-.04-1.224a6.6,6.6,0,0,0-.117-.846,1.845,1.845,0,0,0-.2-.564,3.356,3.356,0,0,0-.446-.535,5.541,5.541,0,0,0-1.082-.75,11.184,11.184,0,0,0-1.732-.773,12.81,12.81,0,0,0-2.067-.545,12.454,12.454,0,0,0-2.259-.2,14.618,14.618,0,0,0-5.186.893,10.787,10.787,0,0,0-4.082,2.731,12.776,12.776,0,0,0-2.7,4.653,20.641,20.641,0,0,0-.963,6.664,20.286,20.286,0,0,0,.791,5.936,11.923,11.923,0,0,0,2.35,4.388,9.844,9.844,0,0,0,3.841,2.72,13.951,13.951,0,0,0,5.254.921,14.033,14.033,0,0,0,2.574-.231,15.417,15.417,0,0,0,2.323-.6,11.894,11.894,0,0,0,1.9-.853,6.13,6.13,0,0,0,1.18-.806,1.974,1.974,0,0,0,.443-.545,2.285,2.285,0,0,0,.177-.562,5.988,5.988,0,0,0,.113-.85c.03-.335.045-.752.045-1.255C940.676-1546.734,940.657-1547.255,940.617-1547.656Zm29.826-10.108a20.558,20.558,0,0,0-.49-4.851,9.691,9.691,0,0,0-1.6-3.5,7.739,7.739,0,0,0-2.911-2.364,10.214,10.214,0,0,0-4.413-.86,9.414,9.414,0,0,0-4.046.907,13.949,13.949,0,0,0-3.818,2.745v-14.187a.832.832,0,0,0-.173-.519,1.276,1.276,0,0,0-.592-.387,4.756,4.756,0,0,0-1.108-.246,14.036,14.036,0,0,0-1.754-.087,13.991,13.991,0,0,0-1.755.087,4.727,4.727,0,0,0-1.11.246,1.271,1.271,0,0,0-.588.387.842.842,0,0,0-.173.519v37.858a.786.786,0,0,0,.173.5,1.3,1.3,0,0,0,.588.361,5.361,5.361,0,0,0,1.11.215,17.365,17.365,0,0,0,1.755.073,17.423,17.423,0,0,0,1.754-.073,5.4,5.4,0,0,0,1.108-.215,1.3,1.3,0,0,0,.592-.361.777.777,0,0,0,.173-.5v-17.074a15.174,15.174,0,0,1,2.94-2.938,4.775,4.775,0,0,1,2.787-1,4.2,4.2,0,0,1,1.914.416,3.475,3.475,0,0,1,1.338,1.185,5.678,5.678,0,0,1,.8,1.827,12.312,12.312,0,0,1,.275,2.936v14.654a.778.778,0,0,0,.171.5,1.286,1.286,0,0,0,.577.361,5.1,5.1,0,0,0,1.1.215q.707.072,1.775.073c.69,0,1.272-.025,1.739-.073a5.158,5.158,0,0,0,1.11-.215,1.3,1.3,0,0,0,.577-.361.8.8,0,0,0,.172-.5Zm-167.286,33.559a.418.418,0,0,0-.064-.231.483.483,0,0,0-.232-.16,2.27,2.27,0,0,0-.439-.093,4.23,4.23,0,0,0-.684-.043,3.975,3.975,0,0,0-.652.043,2.627,2.627,0,0,0-.452.093.57.57,0,0,0-.249.16.386.386,0,0,0-.075.231v20.57a.372.372,0,0,0,.072.232.422.422,0,0,0,.23.159,3.034,3.034,0,0,0,.445.1,5.075,5.075,0,0,0,.682.034,4.973,4.973,0,0,0,.684-.034,2.928,2.928,0,0,0,.439-.1.426.426,0,0,0,.232-.159.405.405,0,0,0,.064-.232Zm19.1.239a.951.951,0,0,0-.113-.384.506.506,0,0,0-.177-.22.484.484,0,0,0-.24-.061H806.819a.464.464,0,0,0-.239.061.517.517,0,0,0-.173.22,1.564,1.564,0,0,0-.107.384,3.1,3.1,0,0,0-.041.557,2.889,2.889,0,0,0,.041.545,1.471,1.471,0,0,0,.107.376.482.482,0,0,0,.173.2.454.454,0,0,0,.239.07h6.026v18.579a.4.4,0,0,0,.072.232.424.424,0,0,0,.226.159,3.329,3.329,0,0,0,.449.1,5.1,5.1,0,0,0,.678.034,5.077,5.077,0,0,0,.69-.034,3.157,3.157,0,0,0,.439-.1.445.445,0,0,0,.234-.159.407.407,0,0,0,.066-.232v-18.579h6.028a.475.475,0,0,0,.24-.07.473.473,0,0,0,.177-.2.9.9,0,0,0,.113-.376,3.814,3.814,0,0,0,.032-.545A4.1,4.1,0,0,0,822.256-1523.967Zm21.168,17.509a1.61,1.61,0,0,0-.079-.4.569.569,0,0,0-.139-.224.321.321,0,0,0-.2-.064,1.037,1.037,0,0,0-.554.288c-.238.195-.528.409-.873.645a6.588,6.588,0,0,1-1.238.654,4.321,4.321,0,0,1-1.655.3,4.17,4.17,0,0,1-1.764-.352,3.328,3.328,0,0,1-1.306-1.088,5.09,5.09,0,0,1-.8-1.814,10.156,10.156,0,0,1-.277-2.524,7.661,7.661,0,0,1,1.051-4.4,3.448,3.448,0,0,1,3.025-1.516,4.583,4.583,0,0,1,1.662.271,6.116,6.116,0,0,1,1.2.6,7.87,7.87,0,0,1,.818.6.936.936,0,0,0,.577.27.427.427,0,0,0,.364-.252,1.956,1.956,0,0,0,.143-.9c0-.2-.006-.362-.013-.494a1.6,1.6,0,0,0-.064-.358.918.918,0,0,0-.13-.274,1.918,1.918,0,0,0-.269-.313,3.785,3.785,0,0,0-.637-.479,5.609,5.609,0,0,0-1-.5,7.652,7.652,0,0,0-1.234-.348,6.938,6.938,0,0,0-1.379-.136,7.488,7.488,0,0,0-2.747.495,5.842,5.842,0,0,0-2.2,1.5,7.074,7.074,0,0,0-1.476,2.588,11.974,11.974,0,0,0-.535,3.787,12.051,12.051,0,0,0,.437,3.421,6.989,6.989,0,0,0,1.276,2.5,5.364,5.364,0,0,0,2.075,1.551,7.272,7.272,0,0,0,2.846.526,7.278,7.278,0,0,0,1.511-.149,8.417,8.417,0,0,0,1.349-.391,6.175,6.175,0,0,0,1.12-.544,4.1,4.1,0,0,0,.706-.515,1.438,1.438,0,0,0,.26-.313.912.912,0,0,0,.1-.245,2.041,2.041,0,0,0,.064-.349c.01-.139.017-.306.017-.491A4.1,4.1,0,0,0,843.423-1506.457ZM860.2-1514.6a6.791,6.791,0,0,0-1.368-2.531,5.881,5.881,0,0,0-2.277-1.59,8.541,8.541,0,0,0-3.2-.544,8.367,8.367,0,0,0-3.328.611,6.4,6.4,0,0,0-2.376,1.718,7.419,7.419,0,0,0-1.429,2.645,11.665,11.665,0,0,0-.467,3.354,11.686,11.686,0,0,0,.447,3.378,6.669,6.669,0,0,0,1.358,2.536,5.873,5.873,0,0,0,2.277,1.589,8.561,8.561,0,0,0,3.2.543,8.209,8.209,0,0,0,3.324-.623,6.41,6.41,0,0,0,2.382-1.728,7.423,7.423,0,0,0,1.432-2.637,11.19,11.19,0,0,0,.478-3.357A11.467,11.467,0,0,0,860.2-1514.6Zm-2.644,5.911a5.142,5.142,0,0,1-.835,1.857,3.862,3.862,0,0,1-1.455,1.212,4.767,4.767,0,0,1-2.086.43,4.65,4.65,0,0,1-2.209-.472,3.788,3.788,0,0,1-1.413-1.277,5.532,5.532,0,0,1-.754-1.878,11.437,11.437,0,0,1-.222-2.3,9.551,9.551,0,0,1,.275-2.354,5.509,5.509,0,0,1,.848-1.862,3.9,3.9,0,0,1,1.445-1.22,4.669,4.669,0,0,1,2.094-.427,4.582,4.582,0,0,1,2.207.477,3.67,3.67,0,0,1,1.4,1.277,5.548,5.548,0,0,1,.742,1.892,10.936,10.936,0,0,1,.228,2.283A9.63,9.63,0,0,1,857.558-1508.691Zm19.959-4.018a11.508,11.508,0,0,0-.275-2.723,5.351,5.351,0,0,0-.9-1.98,4.33,4.33,0,0,0-1.649-1.348,5.631,5.631,0,0,0-2.5-.505,5.42,5.42,0,0,0-2.527.65,9.358,9.358,0,0,0-2.51,2.059v-1.966a.366.366,0,0,0-.058-.224.525.525,0,0,0-.185-.164,1.2,1.2,0,0,0-.381-.1,5.705,5.705,0,0,0-.6-.024,5.554,5.554,0,0,0-.607.024,1.3,1.3,0,0,0-.388.1.45.45,0,0,0-.2.164.482.482,0,0,0-.051.224v14.906a.4.4,0,0,0,.056.22.506.506,0,0,0,.219.16,1.466,1.466,0,0,0,.418.1,6.142,6.142,0,0,0,.667.028,6.44,6.44,0,0,0,.682-.028,1.468,1.468,0,0,0,.411-.1.563.563,0,0,0,.215-.16.36.36,0,0,0,.066-.22v-10.418a10.777,10.777,0,0,1,2.158-2.135,3.468,3.468,0,0,1,2.048-.731,3.126,3.126,0,0,1,1.394.295,2.6,2.6,0,0,1,.991.864,4.382,4.382,0,0,1,.579,1.343,8.581,8.581,0,0,1,.2,2.052v8.729a.36.36,0,0,0,.066.22.519.519,0,0,0,.213.16,1.405,1.405,0,0,0,.414.1,6.244,6.244,0,0,0,.677.028,6.065,6.065,0,0,0,.665-.028,1.446,1.446,0,0,0,.414-.1.5.5,0,0,0,.211-.16.329.329,0,0,0,.072-.22Zm14.02,3.378a3.986,3.986,0,0,0-.857-1.195,5.363,5.363,0,0,0-1.218-.846c-.46-.231-.923-.437-1.389-.626s-.927-.368-1.383-.547a7.429,7.429,0,0,1-1.21-.594,3.222,3.222,0,0,1-.859-.77,1.773,1.773,0,0,1-.335-1.087,2.1,2.1,0,0,1,.181-.86,1.817,1.817,0,0,1,.509-.69,2.515,2.515,0,0,1,.87-.449,4.37,4.37,0,0,1,1.229-.156,4.825,4.825,0,0,1,1.38.185,7.326,7.326,0,0,1,1.049.391,5.787,5.787,0,0,1,.733.387.916.916,0,0,0,.428.181.294.294,0,0,0,.183-.06.414.414,0,0,0,.139-.188,1.16,1.16,0,0,0,.087-.341c.011-.134.026-.3.026-.482s-.015-.329-.026-.452-.038-.225-.051-.306a.856.856,0,0,0-.087-.225.789.789,0,0,0-.228-.232,4.3,4.3,0,0,0-.52-.308,5.08,5.08,0,0,0-.814-.315,7.447,7.447,0,0,0-1.074-.254,7.044,7.044,0,0,0-1.191-.1,7.118,7.118,0,0,0-2.382.359,5.034,5.034,0,0,0-1.692.974,3.888,3.888,0,0,0-1.025,1.41,4.3,4.3,0,0,0-.339,1.677,4.134,4.134,0,0,0,.324,1.707,3.968,3.968,0,0,0,.856,1.223,5.287,5.287,0,0,0,1.2.871,13.094,13.094,0,0,0,1.376.637c.467.185.925.368,1.365.536a6.727,6.727,0,0,1,1.191.592,2.956,2.956,0,0,1,.857.764,1.718,1.718,0,0,1,.326,1.056,2.381,2.381,0,0,1-.226,1.06,2.036,2.036,0,0,1-.637.736,3.176,3.176,0,0,1-.984.444,5.19,5.19,0,0,1-1.255.145,5.476,5.476,0,0,1-1.641-.223,9.009,9.009,0,0,1-1.234-.487c-.343-.181-.639-.342-.874-.486a1.131,1.131,0,0,0-.539-.228.418.418,0,0,0-.208.057.385.385,0,0,0-.141.188,2.188,2.188,0,0,0-.085.349,3.509,3.509,0,0,0-.034.533,3.062,3.062,0,0,0,.087.81.953.953,0,0,0,.264.466,2.765,2.765,0,0,0,.584.37,5.9,5.9,0,0,0,.965.4,9.039,9.039,0,0,0,1.293.315,9.458,9.458,0,0,0,1.515.121,8.441,8.441,0,0,0,2.365-.313,5.407,5.407,0,0,0,1.86-.927,4.056,4.056,0,0,0,1.195-1.508,4.691,4.691,0,0,0,.426-2.034A3.974,3.974,0,0,0,891.538-1509.331Zm17-9.191a.364.364,0,0,0-.078-.224.678.678,0,0,0-.224-.164,1.372,1.372,0,0,0-.413-.1c-.179-.017-.4-.024-.659-.024-.279,0-.5.007-.675.024a1.6,1.6,0,0,0-.422.1.464.464,0,0,0-.224.164.438.438,0,0,0-.059.224v10.415a11.68,11.68,0,0,1-2.159,2.136,3.489,3.489,0,0,1-2.043.729,2.954,2.954,0,0,1-1.391-.306,2.705,2.705,0,0,1-.991-.86,4.041,4.041,0,0,1-.578-1.34,9.148,9.148,0,0,1-.192-2.094v-8.679a.355.355,0,0,0-.064-.224.552.552,0,0,0-.224-.164,1.415,1.415,0,0,0-.42-.1c-.175-.017-.4-.024-.661-.024s-.486.007-.663.024a1.568,1.568,0,0,0-.43.1.512.512,0,0,0-.226.164.408.408,0,0,0-.059.224v9.042a12.214,12.214,0,0,0,.273,2.756,5.381,5.381,0,0,0,.908,1.987,4.385,4.385,0,0,0,1.636,1.347,5.7,5.7,0,0,0,2.516.5,5.451,5.451,0,0,0,2.519-.646,9.271,9.271,0,0,0,2.516-2.048v1.97a.431.431,0,0,0,.051.22.4.4,0,0,0,.194.16,1.17,1.17,0,0,0,.375.1,5.241,5.241,0,0,0,.626.028,4.765,4.765,0,0,0,.584-.028,1.408,1.408,0,0,0,.394-.1.49.49,0,0,0,.2-.16.4.4,0,0,0,.062-.22Zm7.782-7.22a.419.419,0,0,0-.068-.232.462.462,0,0,0-.217-.167,1.591,1.591,0,0,0-.418-.1,5.879,5.879,0,0,0-.675-.031,5.784,5.784,0,0,0-.662.031,1.708,1.708,0,0,0-.422.1.417.417,0,0,0-.215.167.434.434,0,0,0-.058.232v22.126a.384.384,0,0,0,.058.22.458.458,0,0,0,.215.16,1.5,1.5,0,0,0,.422.1,5.963,5.963,0,0,0,.662.028,6.068,6.068,0,0,0,.675-.028,1.4,1.4,0,0,0,.418-.1.516.516,0,0,0,.217-.16.371.371,0,0,0,.068-.22Zm8.429,6.79v-3.545a.4.4,0,0,0-.067-.214.525.525,0,0,0-.215-.178,1.3,1.3,0,0,0-.415-.1,5.014,5.014,0,0,0-.68-.039,4.972,4.972,0,0,0-.665.039,1.386,1.386,0,0,0-.418.1.468.468,0,0,0-.215.178.379.379,0,0,0-.062.214v3.545h-2.063a.516.516,0,0,0-.245.057.4.4,0,0,0-.17.2,1.5,1.5,0,0,0-.111.357,3.13,3.13,0,0,0-.04.526,1.833,1.833,0,0,0,.151.867.439.439,0,0,0,.4.263h2.081v8.712a9.368,9.368,0,0,0,.243,2.244,3.858,3.858,0,0,0,.771,1.572,3.216,3.216,0,0,0,1.357.928,5.792,5.792,0,0,0,1.988.3,5.651,5.651,0,0,0,.765-.05c.252-.035.494-.074.716-.12a4.261,4.261,0,0,0,.607-.188,1.172,1.172,0,0,0,.4-.26.948.948,0,0,0,.2-.416,3.278,3.278,0,0,0,.072-.754,2.844,2.844,0,0,0-.036-.5,1.5,1.5,0,0,0-.074-.312.26.26,0,0,0-.115-.158.331.331,0,0,0-.16-.043.815.815,0,0,0-.3.074c-.111.047-.247.1-.4.161s-.33.107-.526.158a2.894,2.894,0,0,1-.68.069,1.73,1.73,0,0,1-1.636-.782,4.737,4.737,0,0,1-.451-2.325v-8.317h7.7v13.068a.329.329,0,0,0,.072.22.5.5,0,0,0,.219.16,1.581,1.581,0,0,0,.422.1,6.284,6.284,0,0,0,.682.028,5.861,5.861,0,0,0,.645-.028,1.474,1.474,0,0,0,.422-.1.536.536,0,0,0,.224-.16.327.327,0,0,0,.066-.22v-14.462a1.034,1.034,0,0,0-.181-.65.826.826,0,0,0-.682-.224Zm10.406-5.889a1.914,1.914,0,0,0-1.315-.338,1.988,1.988,0,0,0-1.345.348,1.789,1.789,0,0,0-.362,1.31,1.738,1.738,0,0,0,.358,1.28,1.912,1.912,0,0,0,1.315.341,1.984,1.984,0,0,0,1.344-.349,1.808,1.808,0,0,0,.36-1.308A1.75,1.75,0,0,0,935.154-1524.841Zm17.945,12.132a11.8,11.8,0,0,0-.275-2.723,5.348,5.348,0,0,0-.9-1.98,4.413,4.413,0,0,0-1.647-1.348,5.662,5.662,0,0,0-2.51-.505,5.43,5.43,0,0,0-2.527.65,9.3,9.3,0,0,0-2.508,2.059v-1.966a.424.424,0,0,0-.058-.224.489.489,0,0,0-.193-.164,1.043,1.043,0,0,0-.373-.1,5.743,5.743,0,0,0-.6-.024,5.785,5.785,0,0,0-.611.024,1.3,1.3,0,0,0-.384.1.375.375,0,0,0-.192.164.389.389,0,0,0-.053.224v14.906a.413.413,0,0,0,.056.22.487.487,0,0,0,.215.16,1.56,1.56,0,0,0,.422.1,6.069,6.069,0,0,0,.66.028,6.211,6.211,0,0,0,.682-.028,1.418,1.418,0,0,0,.415-.1.512.512,0,0,0,.215-.16.386.386,0,0,0,.064-.22v-10.418a10.925,10.925,0,0,1,2.156-2.135,3.508,3.508,0,0,1,2.048-.731,3.158,3.158,0,0,1,1.4.295,2.6,2.6,0,0,1,.987.864,4.278,4.278,0,0,1,.576,1.343,8.315,8.315,0,0,1,.2,2.052v8.729a.374.374,0,0,0,.068.22.577.577,0,0,0,.217.16,1.419,1.419,0,0,0,.417.1,6.2,6.2,0,0,0,.674.028,6.038,6.038,0,0,0,.665-.028,1.466,1.466,0,0,0,.416-.1.536.536,0,0,0,.211-.16.34.34,0,0,0,.07-.22Zm17.293-5.97a.447.447,0,0,0-.424-.273h-4.5a10.071,10.071,0,0,0-1.1-.211,10.243,10.243,0,0,0-1.262-.074,7.041,7.041,0,0,0-2.331.377,5.168,5.168,0,0,0-1.826,1.068,4.834,4.834,0,0,0-1.195,1.706,5.744,5.744,0,0,0-.435,2.287,5.21,5.21,0,0,0,.3,1.865,4.929,4.929,0,0,0,.816,1.379,5.939,5.939,0,0,0-1.027,1.424,3.818,3.818,0,0,0-.418,1.8,2.56,2.56,0,0,0,.393,1.358,2.852,2.852,0,0,0,1.2,1.046,8.655,8.655,0,0,0-.942.832,5.249,5.249,0,0,0-.682.888,3.7,3.7,0,0,0-.4.978,3.943,3.943,0,0,0-.138,1.059,3.515,3.515,0,0,0,.368,1.6,3.258,3.258,0,0,0,1.176,1.266,6.624,6.624,0,0,0,2.08.841,13.3,13.3,0,0,0,3.068.305,11.4,11.4,0,0,0,3.245-.409,6.638,6.638,0,0,0,2.265-1.106,4.539,4.539,0,0,0,1.316-1.633,4.6,4.6,0,0,0,.427-1.952,3.752,3.752,0,0,0-.375-1.718,3.6,3.6,0,0,0-1.063-1.237,5.1,5.1,0,0,0-1.611-.782,7.97,7.97,0,0,0-2.033-.307l-3.889-.167a2.625,2.625,0,0,1-1.436-.412,1.137,1.137,0,0,1-.539-.96,1.981,1.981,0,0,1,.189-.881,2.824,2.824,0,0,1,.491-.677,3.681,3.681,0,0,0,1.266.605,6.322,6.322,0,0,0,1.736.242,7.217,7.217,0,0,0,2.348-.366,5.179,5.179,0,0,0,1.826-1.053,4.5,4.5,0,0,0,1.191-1.679,6.018,6.018,0,0,0,.4-2.287,4.832,4.832,0,0,0-.226-1.5,3.289,3.289,0,0,0-.812-1.319h2.133a.466.466,0,0,0,.411-.26,1.64,1.64,0,0,0,.154-.832A1.892,1.892,0,0,0,970.393-1518.68Zm-2.979,17.644a2.251,2.251,0,0,1-.737.908,4,4,0,0,1-1.346.64,7.538,7.538,0,0,1-2.082.241,6.761,6.761,0,0,1-3.043-.554,1.757,1.757,0,0,1-1.1-1.634,3.41,3.41,0,0,1,.075-.678,2.315,2.315,0,0,1,.273-.668,4.384,4.384,0,0,1,.541-.718,7.843,7.843,0,0,1,.869-.782l3.854.131a4.019,4.019,0,0,1,2.131.558,1.684,1.684,0,0,1,.788,1.479A2.617,2.617,0,0,1,967.414-1501.035Zm-1.341-11.641a3.032,3.032,0,0,1-.577,1.053,2.789,2.789,0,0,1-.989.711,3.513,3.513,0,0,1-1.4.257,3.135,3.135,0,0,1-2.341-.845,3.143,3.143,0,0,1-.842-2.318,4.075,4.075,0,0,1,.194-1.266,3.054,3.054,0,0,1,.575-1.069,2.66,2.66,0,0,1,.978-.725,3.276,3.276,0,0,1,1.385-.271,3.19,3.19,0,0,1,2.376.854,3.243,3.243,0,0,1,.829,2.375A4,4,0,0,1,966.072-1512.677Z" transform="translate(-646.534 1581.11)"/>
</svg>
